<svg width="233" height="66" viewBox="0 0 233 66" fill="none" xmlns="http://www.w3.org/2000/svg">
<path d="M43.7237 42.0712C44.8229 40.9115 46.0856 40.0345 47.2748 39.0816C49.4838 37.2854 51.7297 35.5084 53.9571 33.7312C54.2022 33.5482 54.4477 33.3465 54.711 33.2012C55.5386 32.7284 56.4178 32.5365 57.3652 32.7566C58.5917 33.0184 59.8362 33.3178 61.0624 33.5983C63.8304 34.2388 66.6172 34.8796 69.3852 35.5202C70.8342 35.8601 72.2832 36.2001 73.7511 36.5216C74.6243 36.7219 75.4014 37.1075 76.0058 37.8079C76.3175 38.1489 76.5349 38.5632 76.7336 38.9772C77.8166 41.2913 78.8999 43.5868 79.9829 45.9009C80.5968 47.1991 81.2107 48.4974 81.8246 49.7957C82.0049 50.1907 82.1664 50.6041 82.2154 51.0531C82.3986 52.4755 81.9701 53.6642 80.9114 54.6191C80.6088 54.8945 80.2882 55.1324 79.9673 55.3889C77.0793 57.6976 74.1913 60.0063 71.3216 62.334C70.7931 62.7554 70.2287 63.0828 69.5551 63.2405C68.9753 63.3623 68.4158 63.3723 67.8397 63.2513C65.1643 62.6496 62.5077 62.0295 59.8512 61.4094C57.2876 60.8093 54.7054 60.2091 52.1415 59.6277C51.9 59.568 51.6583 59.5269 51.4168 59.4671C50.1726 59.149 49.2516 58.425 48.7102 57.2586C48.2405 56.2801 47.7711 55.2829 47.3015 54.3044C46.092 51.7268 44.8642 49.1303 43.6547 46.5527C43.4744 46.1577 43.313 45.7443 43.1702 45.3312C43.0988 45.1246 43.0076 44.9925 42.8031 44.952C42.7099 44.9505 42.6173 44.9117 42.5247 44.8729C41.8021 44.5816 41.0912 44.7387 40.3978 44.9708C40.2478 45.0245 40.1162 45.0972 40.0763 45.2646C39.7591 46.4925 39.1454 47.6036 38.6427 48.7725C37.4439 51.5556 36.2082 54.3195 34.9911 57.0836C34.9526 57.1578 34.9331 57.2135 34.8947 57.2876C34.3335 58.6237 33.3332 59.4114 31.9479 59.7822C26.6881 61.139 21.4283 62.4957 16.1682 63.8712C15.3071 64.1007 14.4677 64.1251 13.6333 63.832C13.151 63.6751 12.7449 63.4073 12.3394 63.1022C10.1467 61.4246 7.95358 59.7657 5.7608 58.0882C4.76577 57.3257 3.77046 56.5818 2.79378 55.8383C2.22257 55.3999 1.76464 54.8698 1.47676 54.1929C1.02687 53.14 1.02462 52.0754 1.48835 51.0179C1.93286 49.9975 2.37737 48.9771 2.82189 47.9567C4.00086 45.248 5.19818 42.5583 6.37715 39.8496C6.58965 39.3673 6.83886 38.9228 7.19876 38.5549C7.76743 37.9473 8.48118 37.6035 9.26749 37.3915C10.3904 37.11 11.5323 36.8102 12.6556 36.51C16.811 35.435 20.9479 34.3597 25.1033 33.2846C25.9456 33.0735 26.7666 33.0302 27.6013 33.3046C28.1023 33.4618 28.5267 33.7485 28.9508 34.0539C30.7567 35.4267 32.5441 36.7991 34.3503 38.1532C35.6771 39.1637 37.0039 40.1741 38.3307 41.1846C38.6255 41.4133 38.9016 41.6417 39.1399 41.9068C39.3598 42.1531 39.5832 42.1752 39.8642 42.0861C40.0329 42.0327 40.1278 41.9221 40.1304 41.7541C40.1355 41.4179 40.141 41.0632 40.1089 40.7265C40.1109 40.5958 40.0384 40.4639 39.909 40.3872C38.8182 39.7913 37.9173 38.9742 36.9406 38.2307C34.4714 36.3433 32.0208 34.4563 29.5705 32.5506C29.3678 32.3981 29.1837 32.2458 28.9999 32.0749C28.2649 31.3724 27.8495 30.5068 27.8093 29.4789C27.7804 28.9368 27.7698 28.4137 27.7595 27.8719C27.7384 25.6115 27.7172 23.3512 27.6961 21.0909C27.6769 19.9139 27.6761 18.7559 27.6569 17.5789C27.6266 15.9161 27.6152 14.2349 27.5849 12.5721C27.5918 12.124 27.5984 11.6945 27.7168 11.2667C27.9534 10.4299 28.4484 9.76515 29.128 9.21533C30.6382 8.00597 32.1299 6.77765 33.6403 5.54962C35.2072 4.28511 36.7555 3.0203 38.3227 1.73712C38.436 1.64548 38.5682 1.53546 38.6814 1.44382C40.0591 0.363158 41.9987 0.318464 43.4368 1.36799C43.9713 1.7685 44.5055 2.18767 45.04 2.58817C47.7487 4.66596 50.4387 6.74346 53.1473 8.82125C53.6635 9.20279 54.1039 9.65787 54.3935 10.2227C54.6653 10.7312 54.8248 11.2753 54.8342 11.8731C54.8514 13.1808 54.8872 14.4888 54.9046 15.7779C54.9206 17.1603 54.9366 18.5427 54.9526 19.9251C54.966 21.4755 54.9981 23.0263 55.0115 24.5767C55.0278 25.9405 55.0628 27.3045 55.0604 28.6679C55.0538 29.0974 55.0469 29.5455 54.9284 29.9733C54.7288 30.8294 54.2339 31.4941 53.5729 32.0442C52.8364 32.6492 52.0814 33.2539 51.345 33.8588C49.0795 35.6916 46.8327 37.5246 44.5669 39.3759C44.1703 39.706 43.7737 40.0361 43.304 40.2716C43.1162 40.3621 43.0204 40.5287 43.0359 40.7344C43.0313 41.0332 43.045 41.3509 43.0777 41.6503C43.0748 41.837 43.1846 41.9694 43.3891 42.0099C43.5193 42.0306 43.6495 42.0513 43.798 42.091L43.7237 42.0712ZM46.6678 45.8149C46.6265 46.0758 46.736 46.2269 46.8083 46.3774C48.2703 49.5005 49.7513 52.6053 51.2131 55.7471C51.4479 56.2363 51.7788 56.5403 52.3179 56.642C53.0242 56.7837 53.7299 56.9627 54.4359 57.1231C59.006 58.1837 63.5577 59.2254 68.1274 60.3047C68.6662 60.4251 69.1147 60.3573 69.5678 59.9908C72.6262 57.5166 75.6843 55.0611 78.7421 52.6243C79.5158 52.0199 79.4304 51.5143 79.1419 50.8748C77.4625 47.3374 75.8017 43.8003 74.1409 40.2632C74.0867 40.1503 74.0142 40.0184 73.96 39.9055C73.8146 39.6605 73.6119 39.5079 73.3524 39.4105C73.2038 39.3708 73.0553 39.3312 72.9068 39.2915C70.8633 38.8116 68.801 38.3501 66.7575 37.8703C63.6365 37.1496 60.4968 36.4286 57.376 35.6892C56.4472 35.4694 56.2969 35.5418 55.5984 36.11C53.1442 38.0892 50.6714 40.0681 48.1986 42.047C47.9534 42.23 47.7266 42.4319 47.4998 42.6339C47.443 42.689 47.4229 42.7821 47.3653 42.8933C47.7911 43.0867 48.2006 43.1304 48.6092 43.2301C51.5814 43.9298 54.5726 44.6111 57.5448 45.3108C59.2169 45.6916 60.9076 46.0726 62.5794 46.472C62.8395 46.5321 63.0451 46.4979 63.2711 46.352C63.7425 46.0044 64.2665 45.8818 64.8256 45.8904C66.5964 45.9178 67.6137 47.6519 67.3134 48.9921C66.9721 50.5744 65.3164 51.5574 63.6681 50.8408C63.1866 50.6279 62.7817 50.2854 62.5466 49.8149C62.3838 49.4948 62.1251 49.3414 61.7905 49.2802C61.2144 49.1592 60.6386 49.0195 60.0627 48.8799C57.8335 48.3598 55.5856 47.8394 53.3564 47.3192C51.257 46.8385 49.1393 46.3388 47.04 45.858C46.9284 45.8376 46.8163 45.8546 46.6864 45.8152L46.6678 45.8149ZM35.7679 42.9566C35.6965 42.7501 35.4926 42.6722 35.3268 42.5389C33.3368 41.0139 31.3278 39.5073 29.3377 37.9823C28.5822 37.4102 27.8449 36.8572 27.0893 36.2851C26.7392 36.0182 26.3865 35.9194 25.9558 36.0435C25.8623 36.0607 25.7685 36.0966 25.675 36.1138C20.9954 37.3302 16.2971 38.5462 11.6177 39.7439C11.0748 39.8849 10.5503 40.0449 10.0078 40.1673C9.46524 40.2896 9.12513 40.5832 8.93069 41.1031L8.92983 41.1592C7.71358 43.8673 6.5349 46.5573 5.33729 49.2657C4.9315 50.1933 4.50706 51.1207 4.1199 52.0486C3.8681 52.661 3.97361 53.0736 4.47084 53.4735C4.52589 53.5304 4.59988 53.5689 4.65522 53.6071C7.73263 55.9521 10.829 58.2787 13.8875 60.642C14.4033 61.0422 14.8865 61.1431 15.5418 60.9665C19.8286 59.8374 24.1337 58.7274 28.4202 57.617C29.3376 57.3697 30.2736 57.1227 31.1907 56.8941C31.6773 56.7709 32.0352 56.5336 32.1918 56.0504C32.2308 55.9389 32.2881 55.8464 32.3271 55.735C33.6217 52.7853 34.9162 49.8355 36.2108 46.8858C36.3071 46.6818 36.4038 46.4592 36.4815 46.255C36.5199 46.1808 36.5027 46.0872 36.5041 45.9938C36.226 45.8961 36.0192 46.005 35.7947 46.0576C31.0402 47.2914 26.2857 48.5253 21.5128 49.7402C21.1383 49.8465 20.8378 49.9912 20.7015 50.3627C20.6625 50.4741 20.5865 50.5663 20.5108 50.6399C19.674 51.7102 18.1416 51.948 17.0161 51.1835C15.8906 50.419 15.5408 48.9193 16.2305 47.716C16.901 46.5496 18.4569 45.9947 19.7686 46.7808C20.1382 46.992 20.4539 47.0716 20.8479 46.9096C20.9041 46.8917 20.96 46.8926 21.0162 46.8748C24.9096 45.8704 28.7843 44.8658 32.678 43.8427C33.5764 43.6138 34.4938 43.3665 35.3925 43.1189C35.5235 43.0836 35.6726 43.0859 35.7128 42.8998L35.7679 42.9566ZM39.8716 36.7631C40.0792 36.5982 40.0451 36.3922 40.0294 36.2052C39.9947 34.8225 39.9601 33.4399 39.9441 32.0575C39.912 30.5067 39.8986 28.9562 39.8852 27.4058C39.8603 25.3882 39.8354 23.3706 39.8289 21.372C39.8355 20.9425 39.7285 20.6234 39.3976 20.3194C38.6076 19.5601 38.4173 18.6046 38.7875 17.5643C39.2742 16.2271 40.5867 15.7431 41.5726 15.8891C42.8931 16.0963 43.846 17.1757 43.8448 18.4644C43.8336 19.1927 43.6001 19.8241 43.0704 20.3202C42.7865 20.596 42.689 20.8746 42.7206 21.2487C42.736 21.4544 42.7512 21.6787 42.7481 21.8841C42.7638 23.2852 42.7795 24.6863 42.7952 26.0874C42.8092 27.6005 42.8232 29.1136 42.8372 30.6267C42.865 32.4575 42.8744 34.2694 42.9021 36.1003C42.9001 36.231 42.8981 36.3617 42.9334 36.493C42.9322 36.5677 43.0056 36.6435 43.0601 36.7377C43.3225 36.6484 43.4742 36.4827 43.6629 36.3362C45.5888 34.7597 47.5331 33.2022 49.459 31.6257C50.1576 31.0575 50.8565 30.4706 51.5547 29.9211C51.97 29.5913 52.1624 29.2021 52.1332 28.6786C52.1369 28.4359 52.1409 28.1745 52.126 27.9314C52.104 26.9412 52.1009 25.9325 52.0788 24.9423C52.0811 24.7929 52.0834 24.6435 52.086 24.4754C52.0591 22.5886 52.0133 20.7201 51.9864 18.8332C51.9633 16.7036 51.9588 14.5743 51.9356 12.4446C51.9371 12.3513 51.9385 12.2579 51.9399 12.1645C51.909 11.7532 51.7647 11.4334 51.4143 11.1852C51.3406 11.128 51.2669 11.0708 51.1933 11.0137C48.3926 8.85973 45.6105 6.7061 42.8095 4.57085C42.441 4.28498 42.0912 3.9994 41.7038 3.73192C41.2797 3.42651 40.8507 3.43855 40.4174 3.73069C40.3044 3.80365 40.2098 3.89558 40.0965 3.98721C39.5869 4.39024 39.077 4.81193 38.5861 5.21525C36.0938 7.2499 33.6015 9.28456 31.0908 11.3003C30.5999 11.7036 30.3507 12.148 30.4155 12.784C30.4143 12.8587 30.4132 12.9334 30.412 13.0081C30.4395 14.8576 30.4859 16.6888 30.5133 18.5383C30.5428 20.2571 30.5533 21.9943 30.5642 23.7128C30.5753 25.4126 30.6048 27.1314 30.6159 28.8313C30.6153 28.8686 30.6147 28.906 30.6142 28.9433C30.6058 29.4848 30.8048 29.8802 31.247 30.2232C33.9926 32.3202 36.7196 34.417 39.4464 36.5324C39.5754 36.6278 39.7231 36.7235 39.8524 36.8002L39.8716 36.7631Z" fill="white"/>
<path d="M110.369 39.8479H100.746L99.0925 44.5436H95.1575L103.391 21.5284H107.756L115.99 44.5436H112.022L110.369 39.8479ZM109.31 36.7726L105.574 26.0918L101.804 36.7726H109.31ZM136.203 28.175C135.608 27.0287 134.781 26.1689 133.723 25.5957C132.665 25.0005 131.442 24.7029 130.053 24.7029C128.532 24.7029 127.176 25.0446 125.985 25.728C124.795 26.4114 123.858 27.3814 123.175 28.638C122.513 29.8945 122.183 31.3495 122.183 33.0029C122.183 34.6563 122.513 36.1223 123.175 37.4009C123.858 38.6575 124.795 39.6275 125.985 40.3109C127.176 40.9943 128.532 41.336 130.053 41.336C132.103 41.336 133.767 40.7628 135.046 39.6165C136.325 38.4701 137.107 36.9159 137.394 34.9539H128.763V31.9447H141.428V34.8878C141.186 36.6734 140.546 38.3158 139.51 39.8149C138.496 41.3139 137.162 42.5154 135.509 43.4193C133.878 44.3011 132.059 44.742 130.053 44.742C127.892 44.742 125.919 44.2459 124.134 43.2539C122.348 42.2398 120.926 40.84 119.868 39.0543C118.832 37.2687 118.314 35.2515 118.314 33.0029C118.314 30.7543 118.832 28.7372 119.868 26.9515C120.926 25.1659 122.348 23.777 124.134 22.785C125.941 21.7709 127.914 21.2639 130.053 21.2639C132.5 21.2639 134.671 21.8701 136.567 23.0826C138.485 24.273 139.874 25.9705 140.734 28.175H136.203ZM157.084 44.5436L151.793 35.3507H148.916V44.5436H145.146V21.5615H153.082C154.846 21.5615 156.334 21.8701 157.546 22.4874C158.781 23.1046 159.696 23.9313 160.291 24.9674C160.908 26.0036 161.217 27.1609 161.217 28.4396C161.217 29.9386 160.776 31.3054 159.894 32.54C159.035 33.7524 157.701 34.5791 155.893 35.02L161.581 44.5436H157.084ZM148.916 32.3416H153.082C154.493 32.3416 155.551 31.9888 156.257 31.2834C156.984 30.5779 157.348 29.63 157.348 28.4396C157.348 27.2491 156.995 26.3232 156.29 25.6619C155.584 24.9785 154.515 24.6368 153.082 24.6368H148.916V32.3416ZM169.809 21.5615V44.5436H166.039V21.5615H169.809ZM182.389 39.5173V36.6734L193.5 20.7348H198.064V36.2436H201.139V39.5173H198.064V44.5436H194.36V39.5173H182.389ZM194.525 24.5706L186.721 36.2436H194.525V24.5706ZM208.297 40.1786V44.5436H204.031V40.1786H208.297ZM212.045 32.1762C212.045 28.3624 212.684 25.3863 213.963 23.2479C215.264 21.0875 217.49 20.0073 220.643 20.0073C223.795 20.0073 226.011 21.0875 227.289 23.2479C228.59 25.3863 229.24 28.3624 229.24 32.1762C229.24 36.0341 228.59 39.0543 227.289 41.2368C226.011 43.3972 223.795 44.4774 220.643 44.4774C217.49 44.4774 215.264 43.3972 213.963 41.2368C212.684 39.0543 212.045 36.0341 212.045 32.1762ZM225.537 32.1762C225.537 30.3906 225.415 28.8805 225.173 27.6459C224.952 26.4114 224.489 25.4084 223.784 24.6368C223.079 23.8431 222.031 23.4463 220.643 23.4463C219.254 23.4463 218.207 23.8431 217.501 24.6368C216.796 25.4084 216.322 26.4114 216.079 27.6459C215.859 28.8805 215.749 30.3906 215.749 32.1762C215.749 34.028 215.859 35.5822 216.079 36.8388C216.3 38.0953 216.763 39.1094 217.468 39.881C218.196 40.6526 219.254 41.0384 220.643 41.0384C222.031 41.0384 223.079 40.6526 223.784 39.881C224.512 39.1094 224.985 38.0953 225.206 36.8388C225.426 35.5822 225.537 34.028 225.537 32.1762Z" fill="white"/>
</svg>
